<svg xmlns="http://www.w3.org/2000/svg" viewBox="0 0 32 32" width="32" height="32">
  <defs>
    <!-- Фоновый градиент -->
    <linearGradient id="bgGradient" x1="0%" y1="0%" x2="100%" y2="100%">
      <stop offset="0%" style="stop-color:#0a0a15;stop-opacity:1" />
      <stop offset="100%" style="stop-color:#1a1a2e;stop-opacity:1" />
    </linearGradient>
    
    <!-- Основной градиент для B -->
    <linearGradient id="mainGradient" x1="0%" y1="0%" x2="100%" y2="100%">
      <stop offset="0%" style="stop-color:#7851A9;stop-opacity:1" />
      <stop offset="50%" style="stop-color:#FF4C60;stop-opacity:1" />
      <stop offset="100%" style="stop-color:#F9D74C;stop-opacity:1" />
    </linearGradient>
  </defs>
  
  <!-- Темный фон -->
  <rect width="32" height="32" rx="6" fill="url(#bgGradient)"/>
  
  <!-- B из четких частиц -->
  <!-- Вертикальный стержень -->
  <rect x="8" y="6" width="4" height="4" fill="#7851A9"/>
  <rect x="8" y="11" width="4" height="4" fill="#FF4C60"/>
  <rect x="8" y="16" width="4" height="4" fill="#6C6CE5"/>
  <rect x="8" y="21" width="4" height="4" fill="#F9D74C"/>
  
  <!-- Верхняя дуга B -->
  <rect x="13" y="6" width="4" height="4" fill="#FF4C60"/>
  <rect x="18" y="6" width="4" height="4" fill="#F9D74C"/>
  <rect x="20" y="8" width="4" height="4" fill="#6C6CE5"/>
  <rect x="20" y="11" width="4" height="4" fill="#7851A9"/>
  <rect x="18" y="13" width="4" height="3" fill="#FF4C60"/>
  
  <!-- Средняя перемычка -->
  <rect x="13" y="14" width="3" height="4" fill="#F9D74C"/>
  <rect x="17" y="14" width="3" height="4" fill="#7851A9"/>
  
  <!-- Нижняя дуга B -->
  <rect x="13" y="21" width="4" height="4" fill="#6C6CE5"/>
  <rect x="18" y="21" width="4" height="4" fill="#FF4C60"/>
  <rect x="20" y="19" width="4" height="4" fill="#F9D74C"/>
  <rect x="20" y="16" width="4" height="4" fill="#7851A9"/>
  
  <!-- Акцентные точки -->
  <rect x="6" y="8" width="1" height="1" fill="#FF4C60" opacity="0.8"/>
  <rect x="26" y="10" width="1" height="1" fill="#6C6CE5" opacity="0.8"/>
  <rect x="6" y="22" width="1" height="1" fill="#F9D74C" opacity="0.8"/>
  <rect x="26" y="20" width="1" height="1" fill="#7851A9" opacity="0.8"/>
  
  <!-- Угловые акценты для баланса -->
  <rect x="2" y="2" width="2" height="2" fill="#7851A9" opacity="0.6"/>
  <rect x="28" y="2" width="2" height="2" fill="#FF4C60" opacity="0.6"/>
  <rect x="2" y="28" width="2" height="2" fill="#6C6CE5" opacity="0.6"/>
  <rect x="28" y="28" width="2" height="2" fill="#F9D74C" opacity="0.6"/>
</svg>
